<?xml version="1.0" encoding="utf-8"?>
<!-- Generator: Adobe Illustrator 26.5.0, SVG Export Plug-In . SVG Version: 6.00 Build 0)  -->
<svg version="1.1" id="Artboard_1" xmlns="http://www.w3.org/2000/svg" xmlns:xlink="http://www.w3.org/1999/xlink" x="0px" y="0px"
	 viewBox="0 0 28.6 41" style="enable-background:new 0 0 28.6 41;" xml:space="preserve">
<style type="text/css">
	.st0{fill:#F0C747;}
</style>
<g>
	<g>
		<polygon class="st0" points="3.8,15.4 0,15.4 0,21.9 0,27.8 3.8,27.8 		"/>
		<polygon class="st0" points="8.2,15.4 8.2,21.9 8.2,27.8 12.1,27.8 12.1,15.4 		"/>
		<polygon class="st0" points="16.5,15.4 16.5,21.9 16.5,27.8 20.3,27.8 20.3,15.4 		"/>
		<polygon class="st0" points="0,13 14.3,13 28.6,13 28.6,9.5 0,9.5 		"/>
		<polygon class="st0" points="14.3,0 0,4.7 0,8.4 14.3,3.6 28.6,8.4 28.6,4.7 		"/>
		<path class="st0" d="M28.6,27.5c-0.1,0.2-1.5,2.6-10.6,2.6h-7.4C1.2,30.2,0.2,31.4,0,31.5v3.6c0.2-0.1,1.2-1.3,10.6-1.4H18
			c9.1,0,10.5-2.4,10.6-2.6V27.5z"/>
		<path class="st0" d="M28.6,33.4C28.5,33.6,27.1,36,18,36h-7.4C1.2,36.1,0.2,37.3,0,37.4V41c0.2-0.1,1.2-1.3,10.6-1.4H18
			c9.1,0,10.5-2.4,10.6-2.6V33.4z"/>
		<path class="st0" d="M24.7,15.4v11.8c3.1-0.7,3.8-1.8,3.8-2v-9.8C28.5,15.4,24.7,15.4,24.7,15.4z"/>
	</g>
</g>
</svg>
